<svg width="62" height="55" viewBox="0 0 62 55" fill="none" xmlns="http://www.w3.org/2000/svg">
<path d="M62 24.1971C61.9956 20.1137 60.3611 16.1988 57.455 13.3114C54.549 10.424 50.6088 8.79995 46.4991 8.79558C46.0091 8.79558 45.5192 8.82308 45.0348 8.86709C43.7849 6.21661 41.8008 3.97487 39.3149 2.40446C36.8289 0.834054 33.944 0 30.9981 0C28.0523 0 25.1674 0.834054 22.6814 2.40446C20.1954 3.97487 18.2113 6.21661 16.9615 8.86709C16.4771 8.82308 15.9871 8.79558 15.4972 8.79558C11.9784 8.79643 8.56466 9.98678 5.81706 12.1709C3.06946 14.3551 1.15155 17.4031 0.378612 20.8139C-0.394329 24.2247 0.0236978 27.7953 1.56397 30.9388C3.10425 34.0822 5.67511 36.6114 8.85394 38.1106V50.5996C8.85394 51.7666 9.32054 52.8859 10.1511 53.7111C10.9817 54.5364 12.1082 55 13.2828 55H48.7135C49.8881 55 51.0146 54.5364 51.8451 53.7111C52.6757 52.8859 53.1423 51.7666 53.1423 50.5996V38.1106C55.7905 36.8593 58.0278 34.8884 59.5954 32.426C61.163 29.9637 61.9967 27.1106 62 24.1971ZM37.7078 32.4643L39.9222 23.6635C40.0727 23.1062 40.4375 22.63 40.938 22.3373C41.4385 22.0447 42.0347 21.9592 42.5981 22.0991C43.1615 22.2391 43.647 22.5933 43.95 23.0855C44.2531 23.5777 44.3494 24.1685 44.2182 24.7306L42.0038 33.5314C41.884 34.0074 41.6076 34.43 41.2184 34.732C40.8292 35.034 40.3496 35.198 39.8558 35.1981C39.6739 35.1979 39.4926 35.1757 39.316 35.1321C38.7469 34.9899 38.2579 34.6291 37.9563 34.1289C37.6548 33.6287 37.5654 33.03 37.7078 32.4643ZM28.7837 24.1971C28.7837 23.6135 29.017 23.0539 29.4323 22.6413C29.8476 22.2287 30.4108 21.9968 30.9981 21.9968C31.5854 21.9968 32.1487 22.2287 32.564 22.6413C32.9792 23.0539 33.2126 23.6135 33.2126 24.1971V32.9979C33.2126 33.5814 32.9792 34.1411 32.564 34.5537C32.1487 34.9663 31.5854 35.1981 30.9981 35.1981C30.4108 35.1981 29.8476 34.9663 29.4323 34.5537C29.017 34.1411 28.7837 33.5814 28.7837 32.9979V24.1971ZM19.389 22.0628C19.9587 21.9214 20.5616 22.0106 21.0651 22.3108C21.5686 22.6109 21.9315 23.0975 22.074 23.6635L24.2884 32.4643C24.4308 33.0304 24.341 33.6294 24.0389 34.1297C23.7368 34.6299 23.2471 34.9905 22.6775 35.1321C22.4964 35.1768 22.3104 35.199 22.1238 35.1981C21.6305 35.1974 21.1515 35.0331 20.7629 34.7311C20.3743 34.4292 20.0983 34.007 19.9786 33.5314L17.7642 24.7306C17.694 24.4494 17.6803 24.1572 17.724 23.8708C17.7677 23.5843 17.8679 23.3092 18.0189 23.0614C18.1698 22.8135 18.3686 22.5977 18.6037 22.4263C18.8389 22.255 19.1057 22.1315 19.389 22.0628ZM48.7135 50.5996H13.2828V39.439C14.0161 39.5452 14.7561 39.5985 15.4972 39.5985H46.4991C47.2401 39.5985 47.9802 39.5452 48.7135 39.439V50.5996Z" fill="url(#paint0_linear_332_11039)"/>
<defs>
<linearGradient id="paint0_linear_332_11039" x1="31" y1="0" x2="31" y2="55" gradientUnits="userSpaceOnUse">
<stop stop-color="#AAFF5B"/>
<stop offset="0.5" stop-color="#CAFF43"/>
<stop offset="1" stop-color="#DCFF68"/>
</linearGradient>
</defs>
</svg>
