<svg width="62" height="55" viewBox="0 0 62 55" fill="none" xmlns="http://www.w3.org/2000/svg">
<path d="M5.4078 20.3665C4.99108 19.856 4.69461 19.259 4.54022 18.6194C4.38584 17.9797 4.37746 17.3138 4.51571 16.6705C6.5678 7.0125 17.6762 0 30.9333 0C44.1904 0 55.2988 7.0125 57.3509 16.6705C57.4906 17.3143 57.4835 17.981 57.3299 18.6216C57.1763 19.2623 56.8802 19.8604 56.4636 20.3719C56.0469 20.8834 55.5202 21.2952 54.9223 21.577C54.3244 21.8588 53.6706 22.0033 53.0092 22H8.85742C8.19633 22.002 7.54321 21.8563 6.94619 21.5735C6.34917 21.2908 5.82347 20.8784 5.4078 20.3665ZM58.9003 35.332L47.5406 39.457L37.2857 35.3568C36.7591 35.1471 36.1717 35.1471 35.6451 35.3568L25.4261 39.4295L15.1905 35.3568C14.6866 35.1563 14.1262 35.1475 13.6162 35.332L1.46381 39.732C0.950194 39.9571 0.541846 40.3684 0.321647 40.8823C0.101448 41.3962 0.0858983 41.9743 0.278154 42.4993C0.470409 43.0242 0.856064 43.4566 1.35684 43.7088C1.85762 43.961 2.43599 44.0139 2.97457 43.857L6.62857 42.5398V44C6.62857 46.9174 7.79251 49.7153 9.86434 51.7782C11.9362 53.8411 14.7462 55 17.6762 55H44.1904C47.1204 55 49.9304 53.8411 52.0023 51.7782C54.0741 49.7153 55.238 46.9174 55.238 44V41.3408L60.4111 39.468C60.7012 39.3835 60.9707 39.2406 61.2031 39.0482C61.4355 38.8558 61.6258 38.6179 61.7622 38.3494C61.8986 38.0808 61.9782 37.7873 61.9961 37.4869C62.014 37.1865 61.9698 36.8856 61.8663 36.6029C61.7627 36.3201 61.602 36.0616 61.3941 35.8431C61.1862 35.6247 60.9355 35.4511 60.6575 35.333C60.3795 35.2149 60.0801 35.1549 59.7779 35.1566C59.4756 35.1583 59.177 35.2218 58.9003 35.343V35.332ZM2.20952 30.8H59.6571C60.2431 30.8 60.8051 30.5682 61.2195 30.1556C61.6338 29.7431 61.8666 29.1835 61.8666 28.6C61.8666 28.0165 61.6338 27.4569 61.2195 27.0444C60.8051 26.6318 60.2431 26.4 59.6571 26.4H2.20952C1.62352 26.4 1.06152 26.6318 0.647154 27.0444C0.232788 27.4569 0 28.0165 0 28.6C0 29.1835 0.232788 29.7431 0.647154 30.1556C1.06152 30.5682 1.62352 30.8 2.20952 30.8Z" fill="url(#paint0_linear_332_11033)"/>
<defs>
<linearGradient id="paint0_linear_332_11033" x1="31" y1="0" x2="31" y2="55" gradientUnits="userSpaceOnUse">
<stop stop-color="#AAFF5B"/>
<stop offset="0.5" stop-color="#CAFF43"/>
<stop offset="1" stop-color="#DCFF68"/>
</linearGradient>
</defs>
</svg>
