<svg width="60" height="55" viewBox="0 0 60 55" fill="none" xmlns="http://www.w3.org/2000/svg">
<path d="M49.2857 16.9231H2.14286C1.57454 16.9231 1.02949 17.1459 0.627628 17.5427C0.225765 17.9394 0 18.4774 0 19.0385V31.7308C0.00640408 35.3322 0.786591 38.8913 2.28905 42.1731C3.79151 45.4549 5.98206 48.3848 8.71607 50.7692H2.14286C1.57454 50.7692 1.02949 50.9921 0.627628 51.3888C0.225765 51.7855 0 52.3236 0 52.8846C0 53.4456 0.225765 53.9837 0.627628 54.3804C1.02949 54.7771 1.57454 55 2.14286 55H49.2857C49.854 55 50.3991 54.7771 50.8009 54.3804C51.2028 53.9837 51.4286 53.4456 51.4286 52.8846C51.4286 52.3236 51.2028 51.7855 50.8009 51.3888C50.3991 50.9921 49.854 50.7692 49.2857 50.7692H42.7125C45.9943 47.8978 48.483 44.25 49.9446 40.1685C52.6664 40.003 55.2217 38.8192 57.09 36.8584C58.9584 34.8976 59.999 32.3073 60 29.6154V27.5C60 24.6948 58.8712 22.0045 56.8619 20.021C54.8525 18.0374 52.1273 16.9231 49.2857 16.9231ZM55.7143 29.6154C55.7133 30.984 55.2642 32.3156 54.4339 33.4116C53.6037 34.5077 52.4367 35.3093 51.1071 35.6971C51.3195 34.3854 51.427 33.0592 51.4286 31.7308V21.5187C52.6816 21.9561 53.7665 22.7661 54.534 23.8372C55.3015 24.9083 55.7139 26.188 55.7143 27.5V29.6154ZM23.5714 10.5769V2.11538C23.5714 1.55435 23.7972 1.01629 24.1991 0.619582C24.6009 0.22287 25.146 0 25.7143 0C26.2826 0 26.8277 0.22287 27.2295 0.619582C27.6314 1.01629 27.8571 1.55435 27.8571 2.11538V10.5769C27.8571 11.138 27.6314 11.676 27.2295 12.0727C26.8277 12.4694 26.2826 12.6923 25.7143 12.6923C25.146 12.6923 24.6009 12.4694 24.1991 12.0727C23.7972 11.676 23.5714 11.138 23.5714 10.5769ZM32.1429 10.5769V2.11538C32.1429 1.55435 32.3686 1.01629 32.7705 0.619582C33.1723 0.22287 33.7174 0 34.2857 0C34.854 0 35.3991 0.22287 35.8009 0.619582C36.2028 1.01629 36.4286 1.55435 36.4286 2.11538V10.5769C36.4286 11.138 36.2028 11.676 35.8009 12.0727C35.3991 12.4694 34.854 12.6923 34.2857 12.6923C33.7174 12.6923 33.1723 12.4694 32.7705 12.0727C32.3686 11.676 32.1429 11.138 32.1429 10.5769ZM15 10.5769V2.11538C15 1.55435 15.2258 1.01629 15.6276 0.619582C16.0295 0.22287 16.5745 0 17.1429 0C17.7112 0 18.2562 0.22287 18.6581 0.619582C19.0599 1.01629 19.2857 1.55435 19.2857 2.11538V10.5769C19.2857 11.138 19.0599 11.676 18.6581 12.0727C18.2562 12.4694 17.7112 12.6923 17.1429 12.6923C16.5745 12.6923 16.0295 12.4694 15.6276 12.0727C15.2258 11.676 15 11.138 15 10.5769Z" fill="url(#paint0_linear_332_11034)"/>
<defs>
<linearGradient id="paint0_linear_332_11034" x1="30" y1="0" x2="30" y2="55" gradientUnits="userSpaceOnUse">
<stop stop-color="#AAFF5B"/>
<stop offset="0.5" stop-color="#CAFF43"/>
<stop offset="1" stop-color="#DCFF68"/>
</linearGradient>
</defs>
</svg>
