<svg width="271" height="200" viewBox="0 0 271 200" fill="none" xmlns="http://www.w3.org/2000/svg">
<g clip-path="url(#clip0_332_10949)">
<rect x="-1" y="137" width="129" height="251" rx="12" transform="rotate(-78 -1 137)" fill="#6736FA"/>
<rect x="7.41016" y="132.23" width="116.357" height="236.491" rx="8" transform="rotate(-78 7.41016 132.23)" fill="url(#paint0_linear_332_10949)"/>
<circle cx="135" cy="100" r="43" fill="url(#paint1_linear_332_10949)"/>
<path d="M115.598 87C117.473 87 119.184 87.4102 120.73 88.2305C122.277 89.0391 123.525 90.3691 124.475 92.2207C125.424 94.0605 125.898 96.457 125.898 99.4102C125.898 102.258 125.471 104.719 124.615 106.793C123.771 108.855 122.559 110.432 120.977 111.521C119.406 112.611 117.555 113.156 115.422 113.156C113.758 113.156 112.264 112.834 110.939 112.189C109.615 111.533 108.549 110.637 107.74 109.5C106.943 108.363 106.457 107.074 106.281 105.633L111.484 105.633C111.707 106.57 112.164 107.303 112.855 107.83C113.547 108.357 114.402 108.621 115.422 108.621C117.133 108.621 118.439 107.9 119.342 106.459C120.256 105.018 120.719 103.008 120.73 100.43L120.52 100.43C119.922 101.543 119.037 102.422 117.865 103.066C116.705 103.699 115.41 104.016 113.98 104.016C112.48 104.016 111.121 103.664 109.902 102.961C108.695 102.258 107.746 101.285 107.055 100.043C106.363 98.7891 106.012 97.3828 106 95.8242C106 94.1367 106.398 92.625 107.195 91.2891C108.004 89.9414 109.135 88.8926 110.588 88.1426C112.053 87.3809 113.723 87 115.598 87ZM111.168 95.6133C111.168 96.457 111.355 97.2246 111.73 97.916C112.117 98.6074 112.645 99.1523 113.313 99.5508C113.992 99.9492 114.766 100.148 115.633 100.148C116.477 100.148 117.244 99.9434 117.936 99.5332C118.639 99.123 119.189 98.5781 119.588 97.8984C119.998 97.207 120.203 96.457 120.203 95.6484C120.191 94.8398 119.986 94.0957 119.588 93.416C119.201 92.7246 118.662 92.1738 117.971 91.7637C117.279 91.3535 116.512 91.1484 115.668 91.1484C114.824 91.1484 114.057 91.3477 113.365 91.7461C112.686 92.1445 112.146 92.6836 111.748 93.3633C111.361 94.043 111.168 94.793 111.168 95.6133Z" fill="#6736FA"/>
<path d="M139.363 113.156C137.242 113.156 135.414 112.646 133.879 111.627C132.344 110.596 131.166 109.102 130.346 107.145C129.537 105.187 129.133 102.832 129.133 100.078C129.133 97.3359 129.543 94.9863 130.363 93.0293C131.184 91.0605 132.361 89.5664 133.896 88.5469C135.432 87.5156 137.254 87 139.363 87C141.473 87 143.295 87.5156 144.83 88.5469C146.365 89.5664 147.543 91.0605 148.363 93.0293C149.184 94.9863 149.594 97.3359 149.594 100.078C149.594 102.844 149.184 105.205 148.363 107.162C147.543 109.119 146.365 110.607 144.83 111.627C143.307 112.646 141.484 113.156 139.363 113.156ZM134.547 100.236C134.547 103.049 134.975 105.182 135.83 106.635C136.686 108.076 137.863 108.797 139.363 108.797C140.875 108.797 142.059 108.064 142.914 106.6C143.77 105.123 144.191 102.949 144.18 100.078C144.18 98.1797 143.986 96.5801 143.6 95.2793C143.213 93.9668 142.656 92.9824 141.93 92.3262C141.203 91.6699 140.348 91.3359 139.363 91.3242C137.852 91.3359 136.668 92.0977 135.813 93.6094C134.969 95.1211 134.547 97.3301 134.547 100.236Z" fill="#6736FA"/>
<path d="M159.156 99.3398C158.055 99.3398 157.041 99.0703 156.115 98.5312C155.189 97.9922 154.451 97.2598 153.9 96.334C153.35 95.3965 153.074 94.3711 153.074 93.2578C153.074 92.1562 153.35 91.1426 153.9 90.2168C154.451 89.2793 155.189 88.541 156.115 88.002C157.041 87.4512 158.055 87.1758 159.156 87.1758C160.258 87.1758 161.277 87.4512 162.215 88.002C163.152 88.541 163.896 89.2793 164.447 90.2168C164.998 91.1426 165.273 92.1562 165.273 93.2578C165.273 94.3711 164.998 95.3965 164.447 96.334C163.896 97.2598 163.152 97.9922 162.215 98.5312C161.277 99.0703 160.258 99.3398 159.156 99.3398ZM156.555 93.2578C156.555 93.7266 156.672 94.1602 156.906 94.5586C157.141 94.957 157.451 95.2734 157.838 95.5078C158.236 95.7422 158.664 95.8594 159.121 95.8594C159.602 95.8594 160.041 95.748 160.439 95.5254C160.85 95.291 161.172 94.9805 161.406 94.5937C161.641 94.1953 161.758 93.7617 161.758 93.293C161.758 92.8125 161.641 92.373 161.406 91.9746C161.184 91.5762 160.873 91.2598 160.475 91.0254C160.076 90.7793 159.637 90.6562 159.156 90.6562C158.688 90.6562 158.254 90.7734 157.855 91.0078C157.469 91.2422 157.152 91.5586 156.906 91.957C156.672 92.3555 156.555 92.7891 156.555 93.2578Z" fill="#6736FA"/>
<g clip-path="url(#clip1_332_10949)">
<path d="M199.076 7.37534C199.008 5.43439 197.383 3.90258 195.424 3.97003C193.478 4.03786 191.942 5.65792 192.01 7.61061L192.586 24.8311C159.723 3.43092 117.497 2.03963 73.4146 20.9882C72.7813 21.262 72.3152 21.4705 72.005 21.59C71.3406 21.7335 70.7055 22.066 70.194 22.5903C68.8417 23.9929 68.8773 26.2266 70.2842 27.5753C71.0047 28.2678 71.7029 28.5483 72.4564 28.5721C73.5395 28.6063 74.7224 28.0913 76.2036 27.4566C117.861 9.54776 157.575 10.6483 188.342 30.4901L170.65 29.4735C168.697 29.3649 167.036 30.84 166.916 32.7867C166.808 34.7338 168.287 36.3903 170.24 36.5107L196.212 38.0118C196.318 38.0152 196.424 38.0185 196.53 38.0218C197.403 37.9906 198.251 37.6414 198.883 37.0268C199.588 36.3323 199.984 35.3813 199.944 34.393L199.04 7.3977L199.076 7.37534ZM74.4912 21.9739C74.7226 22.1105 74.9646 22.2826 75.182 22.4892C74.9646 22.2826 74.7343 22.1108 74.4912 21.9739ZM73.712 21.6438C73.9692 21.7107 74.2248 21.8245 74.4912 21.9739C74.248 21.837 73.9806 21.7228 73.712 21.6438Z" fill="url(#paint2_linear_332_10949)"/>
</g>
<g clip-path="url(#clip2_332_10949)">
<path d="M200.145 193.956C200.057 195.896 198.416 197.411 196.459 197.324C194.513 197.236 192.994 195.6 193.082 193.648L193.835 176.434C160.754 197.495 118.515 198.45 74.6308 179.048C74.0004 178.768 73.5364 178.555 73.2275 178.432C72.5646 178.282 71.933 177.943 71.4269 177.413C70.0891 175.996 70.1477 173.763 71.5685 172.429C72.2961 171.744 72.9972 171.471 73.7508 171.455C74.8342 171.432 76.0117 171.959 77.4864 172.609C118.957 190.946 158.68 190.255 189.65 170.732L171.949 171.566C169.995 171.654 168.349 170.162 168.249 168.214C168.161 166.266 169.657 164.625 171.611 164.525L197.597 163.292C197.703 163.289 197.809 163.287 197.915 163.285C198.788 163.325 199.632 163.683 200.258 164.304C200.956 165.006 201.341 165.961 201.292 166.949L200.109 193.933L200.145 193.956ZM75.7175 178.074C75.9503 177.939 76.1941 177.77 76.4136 177.565C76.1941 177.77 75.962 177.939 75.7175 178.074ZM74.935 178.396C75.1928 178.331 75.4496 178.22 75.7175 178.074C75.4729 178.208 75.2043 178.319 74.935 178.396Z" fill="url(#paint3_linear_332_10949)"/>
</g>
</g>
<defs>
<linearGradient id="paint0_linear_332_10949" x1="65.5884" y1="132.23" x2="65.5884" y2="368.721" gradientUnits="userSpaceOnUse">
<stop stop-color="#6736FA"/>
<stop offset="1" stop-color="#9E79FF"/>
</linearGradient>
<linearGradient id="paint1_linear_332_10949" x1="135" y1="57" x2="135" y2="143" gradientUnits="userSpaceOnUse">
<stop stop-color="#AAFF5B"/>
<stop offset="0.5" stop-color="#CAFF43"/>
<stop offset="1" stop-color="#DCFF68"/>
</linearGradient>
<linearGradient id="paint2_linear_332_10949" x1="135.45" y1="2.06956" x2="134.377" y2="36.0605" gradientUnits="userSpaceOnUse">
<stop stop-color="#AAFF5B"/>
<stop offset="0.5" stop-color="#CAFF43"/>
<stop offset="1" stop-color="#DCFF68"/>
</linearGradient>
<linearGradient id="paint3_linear_332_10949" x1="136.468" y1="198.606" x2="135.746" y2="164.605" gradientUnits="userSpaceOnUse">
<stop stop-color="#AAFF5B"/>
<stop offset="0.5" stop-color="#CAFF43"/>
<stop offset="1" stop-color="#DCFF68"/>
</linearGradient>
<clipPath id="clip0_332_10949">
<rect width="271" height="200" fill="white"/>
</clipPath>
<clipPath id="clip1_332_10949">
<rect width="131" height="34" fill="white" transform="translate(70) rotate(1.80749)"/>
</clipPath>
<clipPath id="clip2_332_10949">
<rect width="131" height="34" fill="white" transform="matrix(0.999775 -0.0212331 -0.0212331 -0.999775 71 200)"/>
</clipPath>
</defs>
</svg>
