<svg width="99" height="99" viewBox="0 0 99 99" fill="none" xmlns="http://www.w3.org/2000/svg">
<circle cx="49.5" cy="49.5" r="49.5" fill="#3F2AA1"/>
<path d="M72.5475 36.7568L43.1904 66.1399C42.9347 66.3967 42.6308 66.6004 42.2963 66.7395C41.9618 66.8785 41.6031 66.9501 41.2409 66.9501C40.8786 66.9501 40.52 66.8785 40.1854 66.7395C39.8509 66.6004 39.5471 66.3967 39.2914 66.1399L26.4476 53.2848C26.1916 53.0286 25.9886 52.7244 25.85 52.3896C25.7114 52.0548 25.6401 51.6959 25.6401 51.3336C25.6401 50.9712 25.7114 50.6124 25.85 50.2776C25.9886 49.9428 26.1916 49.6386 26.4476 49.3824C26.7037 49.1261 27.0076 48.9229 27.3421 48.7842C27.6766 48.6455 28.0351 48.5741 28.3971 48.5741C28.7592 48.5741 29.1177 48.6455 29.4522 48.7842C29.7867 48.9229 30.0906 49.1261 30.3466 49.3824L41.2432 60.2885L68.6531 32.859C69.1701 32.3415 69.8713 32.0508 70.6026 32.0508C71.3338 32.0508 72.035 32.3415 72.552 32.859C73.0691 33.3765 73.3596 34.0784 73.3596 34.8102C73.3596 35.5421 73.0691 36.2439 72.552 36.7614L72.5475 36.7568Z" fill="#FCFCFC"/>
</svg>
