<svg width="24" height="21" viewBox="0 0 24 21" fill="none" xmlns="http://www.w3.org/2000/svg">
<path d="M23.1849 17.2293L14.0027 1.28316C13.7733 0.892481 13.4457 0.568553 13.0525 0.343479C12.6593 0.118405 12.2141 0 11.761 0C11.3079 0 10.8627 0.118405 10.4695 0.343479C10.0763 0.568553 9.74874 0.892481 9.51928 1.28316L0.337123 17.2293C0.116348 17.6072 0 18.037 0 18.4746C0 18.9123 0.116348 19.3421 0.337123 19.7199C0.563638 20.113 0.890646 20.4387 1.28459 20.6636C1.67854 20.8885 2.12524 21.0046 2.57885 20.9999H20.9432C21.3964 21.0042 21.8427 20.888 22.2362 20.663C22.6298 20.4381 22.9565 20.1126 23.1828 19.7199C23.4039 19.3422 23.5206 18.9126 23.521 18.4749C23.5213 18.0373 23.4054 17.6074 23.1849 17.2293ZM21.7286 18.8789C21.6485 19.0154 21.5336 19.1282 21.3956 19.2057C21.2576 19.2832 21.1014 19.3226 20.9432 19.3199H2.57885C2.42059 19.3226 2.26445 19.2832 2.12644 19.2057C1.98843 19.1282 1.87351 19.0154 1.79346 18.8789C1.72095 18.7561 1.6827 18.6162 1.6827 18.4736C1.6827 18.331 1.72095 18.1911 1.79346 18.0683L10.9756 2.1221C11.0573 1.9862 11.1727 1.87375 11.3107 1.79568C11.4487 1.71761 11.6046 1.67658 11.7631 1.67658C11.9217 1.67658 12.0775 1.71761 12.2155 1.79568C12.3535 1.87375 12.4689 1.9862 12.5506 2.1221L21.7328 18.0683C21.8046 18.1914 21.8422 18.3316 21.8414 18.4742C21.8407 18.6167 21.8017 18.7565 21.7286 18.8789ZM10.921 12.5999V8.39999C10.921 8.17721 11.0095 7.96355 11.167 7.80602C11.3246 7.64849 11.5382 7.55999 11.761 7.55999C11.9838 7.55999 12.1974 7.64849 12.355 7.80602C12.5125 7.96355 12.601 8.17721 12.601 8.39999V12.5999C12.601 12.8227 12.5125 13.0364 12.355 13.1939C12.1974 13.3514 11.9838 13.4399 11.761 13.4399C11.5382 13.4399 11.3246 13.3514 11.167 13.1939C11.0095 13.0364 10.921 12.8227 10.921 12.5999ZM13.021 16.3799C13.021 16.6291 12.9471 16.8727 12.8087 17.0799C12.6702 17.2871 12.4734 17.4486 12.2432 17.544C12.013 17.6393 11.7596 17.6643 11.5152 17.6157C11.2708 17.5671 11.0463 17.4471 10.8701 17.2709C10.6939 17.0946 10.5739 16.8701 10.5252 16.6257C10.4766 16.3813 10.5016 16.128 10.5969 15.8977C10.6923 15.6675 10.8538 15.4707 11.061 15.3323C11.2682 15.1938 11.5118 15.1199 11.761 15.1199C12.0952 15.1199 12.4157 15.2527 12.652 15.489C12.8882 15.7253 13.021 16.0457 13.021 16.3799Z" fill="#FF5323"/>
</svg>
