<svg width="23" height="21" viewBox="0 0 23 21" fill="none" xmlns="http://www.w3.org/2000/svg">
<path d="M23 9.23888C22.9984 7.67977 22.392 6.18499 21.314 5.08253C20.2359 3.98007 18.7742 3.35998 17.2497 3.35831C17.0679 3.35831 16.8861 3.36881 16.7065 3.38562C16.2428 2.37362 15.5068 1.51768 14.5845 0.918068C13.6623 0.318457 12.5921 0 11.4993 0C10.4065 0 9.33628 0.318457 8.41407 0.918068C7.49186 1.51768 6.75581 2.37362 6.29216 3.38562C6.11246 3.36881 5.93071 3.35831 5.74896 3.35831C4.44361 3.35864 3.17721 3.81313 2.15794 4.64709C1.13867 5.48105 0.427189 6.64483 0.140453 7.94714C-0.146283 9.24944 0.00879113 10.6128 0.580184 11.813C1.15158 13.0132 2.10528 13.9789 3.28452 14.5513V19.3198C3.28452 19.7654 3.45762 20.1928 3.76574 20.5079C4.07385 20.823 4.49174 21 4.92748 21H18.0711C18.5069 21 18.9248 20.823 19.2329 20.5079C19.541 20.1928 19.7141 19.7654 19.7141 19.3198V14.5513C20.6965 14.0735 21.5265 13.321 22.108 12.3809C22.6895 11.4407 22.9988 10.3513 23 9.23888ZM18.0711 19.3198H4.92748V15.0585C5.19951 15.0991 5.47405 15.1194 5.74896 15.1194H17.2497C17.5246 15.1194 17.7991 15.0991 18.0711 15.0585V19.3198ZM17.2497 13.4393H15.8377L16.4035 11.1228C16.4522 10.9081 16.4165 10.6826 16.304 10.4946C16.1916 10.3067 16.0115 10.1714 15.8025 10.118C15.5935 10.0646 15.3724 10.0972 15.1867 10.209C15.001 10.3207 14.8657 10.5025 14.8099 10.7153L14.1434 13.4393H12.3208V10.919C12.3208 10.6962 12.2342 10.4826 12.0802 10.325C11.9261 10.1675 11.7172 10.079 11.4993 10.079C11.2814 10.079 11.0725 10.1675 10.9184 10.325C10.7644 10.4826 10.6778 10.6962 10.6778 10.919V13.4393H8.85517L8.18875 10.7153C8.16411 10.6067 8.11857 10.5041 8.05477 10.4137C7.99098 10.3232 7.91021 10.2466 7.81717 10.1884C7.72413 10.1302 7.62069 10.0916 7.51289 10.0747C7.40508 10.0578 7.29507 10.063 7.18926 10.0901C7.08346 10.1171 6.98398 10.1654 6.89663 10.2322C6.80927 10.299 6.7358 10.3829 6.68049 10.479C6.62518 10.5752 6.58915 10.6816 6.57448 10.7921C6.55982 10.9026 6.56682 11.015 6.59508 11.1228L7.16087 13.4393H5.74896C4.65961 13.4393 3.61488 12.9967 2.8446 12.209C2.07431 11.4213 1.64157 10.3529 1.64157 9.23888C1.64157 8.12486 2.07431 7.05647 2.8446 6.26874C3.61488 5.48101 4.65961 5.03847 5.74896 5.03847H5.80852C5.76877 5.31665 5.74887 5.59742 5.74896 5.87855C5.74896 6.10136 5.83551 6.31503 5.98956 6.47258C6.14362 6.63013 6.35257 6.71863 6.57044 6.71863C6.78831 6.71863 6.99725 6.63013 7.15131 6.47258C7.30537 6.31503 7.39192 6.10136 7.39192 5.87855C7.39192 4.76454 7.82466 3.69615 8.59494 2.90842C9.36523 2.12069 10.41 1.67815 11.4993 1.67815C12.5887 1.67815 13.6334 2.12069 14.4037 2.90842C15.174 3.69615 15.6067 4.76454 15.6067 5.87855C15.6067 6.10136 15.6932 6.31503 15.8473 6.47258C16.0014 6.63013 16.2103 6.71863 16.4282 6.71863C16.646 6.71863 16.855 6.63013 17.009 6.47258C17.1631 6.31503 17.2497 6.10136 17.2497 5.87855C17.2497 5.59742 17.2298 5.31665 17.1901 5.03847H17.2497C18.339 5.03847 19.3837 5.48101 20.154 6.26874C20.9243 7.05647 21.357 8.12486 21.357 9.23888C21.357 10.3529 20.9243 11.4213 20.154 12.209C19.3837 12.9967 18.339 13.4393 17.2497 13.4393Z" fill="#CAFF43"/>
</svg>
