<svg width="23" height="21" viewBox="0 0 23 21" fill="none" xmlns="http://www.w3.org/2000/svg">
<path d="M5.75 4.03846V0.807692C5.75 0.593479 5.83654 0.388039 5.99059 0.236568C6.14464 0.0850959 6.35357 0 6.57143 0C6.78929 0 6.99822 0.0850959 7.15227 0.236568C7.30631 0.388039 7.39286 0.593479 7.39286 0.807692V4.03846C7.39286 4.25267 7.30631 4.45811 7.15227 4.60959C6.99822 4.76106 6.78929 4.84615 6.57143 4.84615C6.35357 4.84615 6.14464 4.76106 5.99059 4.60959C5.83654 4.45811 5.75 4.25267 5.75 4.03846ZM9.85714 4.84615C10.075 4.84615 10.2839 4.76106 10.438 4.60959C10.592 4.45811 10.6786 4.25267 10.6786 4.03846V0.807692C10.6786 0.593479 10.592 0.388039 10.438 0.236568C10.2839 0.0850959 10.075 0 9.85714 0C9.63929 0 9.43035 0.0850959 9.27631 0.236568C9.12226 0.388039 9.03571 0.593479 9.03571 0.807692V4.03846C9.03571 4.25267 9.12226 4.45811 9.27631 4.60959C9.43035 4.76106 9.63929 4.84615 9.85714 4.84615ZM13.1429 4.84615C13.3607 4.84615 13.5696 4.76106 13.7237 4.60959C13.8777 4.45811 13.9643 4.25267 13.9643 4.03846V0.807692C13.9643 0.593479 13.8777 0.388039 13.7237 0.236568C13.5696 0.0850959 13.3607 0 13.1429 0C12.925 0 12.7161 0.0850959 12.562 0.236568C12.408 0.388039 12.3214 0.593479 12.3214 0.807692V4.03846C12.3214 4.25267 12.408 4.45811 12.562 4.60959C12.7161 4.76106 12.925 4.84615 13.1429 4.84615ZM23 10.5V11.3077C22.9997 12.335 22.6012 13.3236 21.8856 14.0722C21.1701 14.8208 20.1913 15.2731 19.1485 15.3371C18.5882 16.8955 17.6342 18.2883 16.3762 19.3846H18.8929C19.1107 19.3846 19.3196 19.4697 19.4737 19.6212C19.6277 19.7727 19.7143 19.9781 19.7143 20.1923C19.7143 20.4065 19.6277 20.612 19.4737 20.7634C19.3196 20.9149 19.1107 21 18.8929 21H0.821429C0.603572 21 0.394639 20.9149 0.240591 20.7634C0.0865431 20.612 0 20.4065 0 20.1923C0 19.9781 0.0865431 19.7727 0.240591 19.6212C0.394639 19.4697 0.603572 19.3846 0.821429 19.3846H3.34116C2.29312 18.4742 1.45341 17.3555 0.877469 16.1024C0.301526 14.8494 0.0024549 13.4905 0 12.1154V7.26923C0 7.05502 0.0865431 6.84958 0.240591 6.69811C0.394639 6.54663 0.603572 6.46154 0.821429 6.46154H18.8929C19.9821 6.46154 21.0268 6.88702 21.797 7.64438C22.5673 8.40173 23 9.42893 23 10.5ZM18.0714 8.07692H1.64286V12.1154C1.64602 13.6319 2.08188 15.1171 2.90088 16.4022C3.71987 17.6872 4.88913 18.7205 6.27571 19.3846H13.4386C14.8252 18.7205 15.9944 17.6872 16.8134 16.4022C17.6324 15.1171 18.0683 13.6319 18.0714 12.1154V8.07692ZM21.3571 10.5C21.357 9.99905 21.1989 9.51046 20.9047 9.10148C20.6105 8.6925 20.1946 8.38323 19.7143 8.21625V12.1154C19.7137 12.6226 19.6725 13.129 19.5911 13.6298C20.1007 13.4817 20.5481 13.1757 20.8663 12.7572C21.1846 12.3387 21.3568 11.8302 21.3571 11.3077V10.5Z" fill="#CAFF43"/>
</svg>
