<svg width="24" height="21" viewBox="0 0 24 21" fill="none" xmlns="http://www.w3.org/2000/svg">
<path d="M23.1429 0H15.4286C14.7632 0 14.107 0.158135 13.5119 0.461881C12.9168 0.765627 12.3992 1.20664 12 1.75C11.6008 1.20664 11.0832 0.765627 10.4881 0.461881C9.89296 0.158135 9.23676 0 8.57143 0H0.857143C0.629814 0 0.411797 0.0921874 0.251051 0.256282C0.0903058 0.420376 0 0.642936 0 0.875V16.625C0 16.8571 0.0903058 17.0796 0.251051 17.2437C0.411797 17.4078 0.629814 17.5 0.857143 17.5H8.57143C9.25341 17.5 9.90747 17.7766 10.3897 18.2688C10.8719 18.7611 11.1429 19.4288 11.1429 20.125C11.1429 20.3571 11.2332 20.5796 11.3939 20.7437C11.5547 20.9078 11.7727 21 12 21C12.2273 21 12.4453 20.9078 12.6061 20.7437C12.7668 20.5796 12.8571 20.3571 12.8571 20.125C12.8571 19.4288 13.1281 18.7611 13.6103 18.2688C14.0925 17.7766 14.7466 17.5 15.4286 17.5H23.1429C23.3702 17.5 23.5882 17.4078 23.7489 17.2437C23.9097 17.0796 24 16.8571 24 16.625V0.875C24 0.642936 23.9097 0.420376 23.7489 0.256282C23.5882 0.0921874 23.3702 0 23.1429 0ZM8.57143 15.75H1.71429V1.75H8.57143C9.25341 1.75 9.90747 2.02656 10.3897 2.51884C10.8719 3.01113 11.1429 3.67881 11.1429 4.375V16.625C10.4017 16.0557 9.49897 15.7485 8.57143 15.75ZM22.2857 15.75H15.4286C14.501 15.7485 13.5983 16.0557 12.8571 16.625V4.375C12.8571 3.67881 13.1281 3.01113 13.6103 2.51884C14.0925 2.02656 14.7466 1.75 15.4286 1.75H22.2857V15.75ZM15.4286 4.375H19.7143C19.9416 4.375 20.1596 4.46719 20.3204 4.63128C20.4811 4.79538 20.5714 5.01794 20.5714 5.25C20.5714 5.48206 20.4811 5.70462 20.3204 5.86872C20.1596 6.03281 19.9416 6.125 19.7143 6.125H15.4286C15.2012 6.125 14.9832 6.03281 14.8225 5.86872C14.6617 5.70462 14.5714 5.48206 14.5714 5.25C14.5714 5.01794 14.6617 4.79538 14.8225 4.63128C14.9832 4.46719 15.2012 4.375 15.4286 4.375ZM20.5714 8.75C20.5714 8.98206 20.4811 9.20463 20.3204 9.36872C20.1596 9.53281 19.9416 9.625 19.7143 9.625H15.4286C15.2012 9.625 14.9832 9.53281 14.8225 9.36872C14.6617 9.20463 14.5714 8.98206 14.5714 8.75C14.5714 8.51794 14.6617 8.29538 14.8225 8.13128C14.9832 7.96719 15.2012 7.875 15.4286 7.875H19.7143C19.9416 7.875 20.1596 7.96719 20.3204 8.13128C20.4811 8.29538 20.5714 8.51794 20.5714 8.75ZM20.5714 12.25C20.5714 12.4821 20.4811 12.7046 20.3204 12.8687C20.1596 13.0328 19.9416 13.125 19.7143 13.125H15.4286C15.2012 13.125 14.9832 13.0328 14.8225 12.8687C14.6617 12.7046 14.5714 12.4821 14.5714 12.25C14.5714 12.0179 14.6617 11.7954 14.8225 11.6313C14.9832 11.4672 15.2012 11.375 15.4286 11.375H19.7143C19.9416 11.375 20.1596 11.4672 20.3204 11.6313C20.4811 11.7954 20.5714 12.0179 20.5714 12.25Z" fill="#CAFF43"/>
</svg>
