<svg width="19" height="21" viewBox="0 0 19 21" fill="none" xmlns="http://www.w3.org/2000/svg">
<path d="M2.37746 5.82164C2.37746 4.27764 3.00289 2.79689 4.11616 1.70512C5.22942 0.613349 6.73933 0 8.31373 0C9.88813 0 11.398 0.613349 12.5113 1.70512C13.6246 2.79689 14.25 4.27764 14.25 5.82164C14.25 6.0275 14.1666 6.22494 14.0182 6.3705C13.8697 6.51607 13.6684 6.59785 13.4585 6.59785C13.2486 6.59785 13.0473 6.51607 12.8988 6.3705C12.7504 6.22494 12.667 6.0275 12.667 5.82164C12.667 4.68937 12.2083 3.60349 11.392 2.80286C10.5756 2.00223 9.46829 1.55244 8.31373 1.55244C7.15917 1.55244 6.0519 2.00223 5.23551 2.80286C4.41911 3.60349 3.96047 4.68937 3.96047 5.82164C3.96047 6.0275 3.87708 6.22494 3.72864 6.3705C3.58021 6.51607 3.37889 6.59785 3.16897 6.59785C2.95905 6.59785 2.75772 6.51607 2.60929 6.3705C2.46085 6.22494 2.37746 6.0275 2.37746 5.82164ZM16.2288 10.0908C15.767 10.0903 15.3126 10.2034 14.9069 10.4198C14.7857 10.0519 14.5859 9.71369 14.3207 9.42766C14.0556 9.14163 13.7312 8.91438 13.3694 8.76109C13.0075 8.60781 12.6165 8.53203 12.2224 8.5388C11.8283 8.54557 11.4401 8.63475 11.084 8.80037V5.82164C11.084 5.10111 10.7921 4.41009 10.2726 3.90059C9.75307 3.3911 9.04845 3.10487 8.31373 3.10487C7.57901 3.10487 6.87439 3.3911 6.35486 3.90059C5.83534 4.41009 5.54347 5.10111 5.54347 5.82164V13.5838L5.16553 12.989C4.79594 12.3662 4.18918 11.9128 3.47873 11.7286C2.76828 11.5445 2.01234 11.6447 1.3772 12.0071C0.742064 12.3696 0.27976 12.9646 0.0919887 13.6613C-0.0957822 14.3581 0.0063623 15.0994 0.375952 15.7223L3.27681 20.5737C3.32546 20.6681 3.3933 20.7519 3.47617 20.8197C3.55903 20.8875 3.65516 20.938 3.75866 20.9681C3.86215 20.9981 3.97082 21.0071 4.07798 20.9944C4.18514 20.9818 4.28853 20.9478 4.38179 20.8945C4.47505 20.8412 4.55621 20.7698 4.62029 20.6846C4.68436 20.5994 4.72999 20.5023 4.75438 20.3992C4.77877 20.296 4.78139 20.1891 4.76209 20.085C4.74279 19.9808 4.70197 19.8817 4.64215 19.7936L1.74426 14.9422C1.6629 14.8097 1.60929 14.6626 1.58655 14.5095C1.56381 14.3564 1.5724 14.2005 1.61181 14.0507C1.65123 13.9009 1.72069 13.7603 1.81613 13.6372C1.91157 13.514 2.03108 13.4107 2.16767 13.3334C2.30427 13.256 2.45521 13.2061 2.61168 13.1866C2.76816 13.1671 2.92703 13.1784 3.07902 13.2198C3.231 13.2611 3.37305 13.3318 3.49688 13.4276C3.6207 13.5235 3.72381 13.6425 3.80019 13.7779L3.81404 13.8002L5.6622 16.711C5.75294 16.8546 5.88897 16.9652 6.04964 17.0261C6.21032 17.087 6.38686 17.0949 6.55249 17.0484C6.71811 17.002 6.86377 16.9039 6.96736 16.7689C7.07095 16.6339 7.12682 16.4695 7.12648 16.3006V5.82164C7.12648 5.51284 7.25156 5.21669 7.47422 4.99833C7.69687 4.77998 7.99885 4.65731 8.31373 4.65731C8.62861 4.65731 8.93059 4.77998 9.15324 4.99833C9.3759 5.21669 9.50098 5.51284 9.50098 5.82164V12.4195C9.50098 12.6254 9.58437 12.8228 9.73281 12.9684C9.88124 13.1139 10.0826 13.1957 10.2925 13.1957C10.5024 13.1957 10.7037 13.1139 10.8522 12.9684C11.0006 12.8228 11.084 12.6254 11.084 12.4195V11.2552C11.084 10.9464 11.2091 10.6502 11.4317 10.4319C11.6544 10.2135 11.9564 10.0908 12.2712 10.0908C12.5861 10.0908 12.8881 10.2135 13.1108 10.4319C13.3334 10.6502 13.4585 10.9464 13.4585 11.2552V13.1957C13.4585 13.4016 13.5419 13.599 13.6903 13.7446C13.8388 13.8901 14.0401 13.9719 14.25 13.9719C14.4599 13.9719 14.6612 13.8901 14.8097 13.7446C14.9581 13.599 15.0415 13.4016 15.0415 13.1957V12.8076C15.0415 12.4988 15.1666 12.2026 15.3892 11.9843C15.6119 11.7659 15.9139 11.6433 16.2288 11.6433C16.5436 11.6433 16.8456 11.7659 17.0683 11.9843C17.2909 12.2026 17.416 12.4988 17.416 12.8076V16.3006C17.416 18.3973 16.7135 19.8227 16.7076 19.8343C16.6138 20.0184 16.5985 20.2316 16.6649 20.4268C16.7313 20.622 16.8741 20.7834 17.0618 20.8754C17.1716 20.9299 17.293 20.9581 17.416 20.9579C17.5631 20.958 17.7072 20.9179 17.8323 20.8422C17.9575 20.7664 18.0586 20.658 18.1244 20.529C18.161 20.4582 19 18.7825 19 16.3006V12.8076C19 12.4507 18.9283 12.0974 18.789 11.7677C18.6498 11.438 18.4456 11.1385 18.1883 10.8862C17.9309 10.6339 17.6254 10.4338 17.2892 10.2974C16.953 10.1609 16.5926 10.0907 16.2288 10.0908Z" fill="#CAFF43"/>
</svg>
