<svg width="18" height="21" viewBox="0 0 18 21" fill="none" xmlns="http://www.w3.org/2000/svg">
<path d="M13.0909 10.8889C13.0909 11.0952 13.0047 11.293 12.8513 11.4389C12.6978 11.5847 12.4897 11.6667 12.2727 11.6667H5.72727C5.51028 11.6667 5.30217 11.5847 5.14873 11.4389C4.99529 11.293 4.90909 11.0952 4.90909 10.8889C4.90909 10.6826 4.99529 10.4848 5.14873 10.3389C5.30217 10.1931 5.51028 10.1111 5.72727 10.1111H12.2727C12.4897 10.1111 12.6978 10.1931 12.8513 10.3389C13.0047 10.4848 13.0909 10.6826 13.0909 10.8889ZM12.2727 13.2222H5.72727C5.51028 13.2222 5.30217 13.3042 5.14873 13.45C4.99529 13.5959 4.90909 13.7937 4.90909 14C4.90909 14.2063 4.99529 14.4041 5.14873 14.55C5.30217 14.6958 5.51028 14.7778 5.72727 14.7778H12.2727C12.4897 14.7778 12.6978 14.6958 12.8513 14.55C13.0047 14.4041 13.0909 14.2063 13.0909 14C13.0909 13.7937 13.0047 13.5959 12.8513 13.45C12.6978 13.3042 12.4897 13.2222 12.2727 13.2222ZM18 2.33333V17.8889C18 18.714 17.6552 19.5053 17.0414 20.0888C16.4277 20.6722 15.5953 21 14.7273 21H3.27273C2.40475 21 1.57231 20.6722 0.958559 20.0888C0.344804 19.5053 0 18.714 0 17.8889V2.33333C0 2.12705 0.0862012 1.92922 0.23964 1.78336C0.393079 1.6375 0.601187 1.55556 0.818182 1.55556H3.27273V0.777778C3.27273 0.571498 3.35893 0.373667 3.51237 0.227806C3.66581 0.0819442 3.87391 0 4.09091 0C4.3079 0 4.51601 0.0819442 4.66945 0.227806C4.82289 0.373667 4.90909 0.571498 4.90909 0.777778V1.55556H8.18182V0.777778C8.18182 0.571498 8.26802 0.373667 8.42146 0.227806C8.5749 0.0819442 8.783 0 9 0C9.217 0 9.4251 0.0819442 9.57854 0.227806C9.73198 0.373667 9.81818 0.571498 9.81818 0.777778V1.55556H13.0909V0.777778C13.0909 0.571498 13.1771 0.373667 13.3305 0.227806C13.484 0.0819442 13.6921 0 13.9091 0C14.1261 0 14.3342 0.0819442 14.4876 0.227806C14.6411 0.373667 14.7273 0.571498 14.7273 0.777778V1.55556H17.1818C17.3988 1.55556 17.6069 1.6375 17.7604 1.78336C17.9138 1.92922 18 2.12705 18 2.33333ZM16.3636 3.11111H14.7273V3.88889C14.7273 4.09517 14.6411 4.293 14.4876 4.43886C14.3342 4.58472 14.1261 4.66667 13.9091 4.66667C13.6921 4.66667 13.484 4.58472 13.3305 4.43886C13.1771 4.293 13.0909 4.09517 13.0909 3.88889V3.11111H9.81818V3.88889C9.81818 4.09517 9.73198 4.293 9.57854 4.43886C9.4251 4.58472 9.217 4.66667 9 4.66667C8.783 4.66667 8.5749 4.58472 8.42146 4.43886C8.26802 4.293 8.18182 4.09517 8.18182 3.88889V3.11111H4.90909V3.88889C4.90909 4.09517 4.82289 4.293 4.66945 4.43886C4.51601 4.58472 4.3079 4.66667 4.09091 4.66667C3.87391 4.66667 3.66581 4.58472 3.51237 4.43886C3.35893 4.293 3.27273 4.09517 3.27273 3.88889V3.11111H1.63636V17.8889C1.63636 18.3014 1.80877 18.6971 2.11564 18.9888C2.42252 19.2806 2.83874 19.4444 3.27273 19.4444H14.7273C15.1613 19.4444 15.5775 19.2806 15.8844 18.9888C16.1912 18.6971 16.3636 18.3014 16.3636 17.8889V3.11111Z" fill="#CAFF43"/>
</svg>
