<svg width="331" height="134" viewBox="0 0 331 134" fill="none" xmlns="http://www.w3.org/2000/svg">
<rect width="331" height="134" rx="12" fill="#F1F3F5"/>
<path d="M90.44 41.248C90.2828 39.6019 89.6697 38.2961 88.6007 37.3306C87.5474 36.3651 86.1325 35.8823 84.356 35.8823C81.9978 35.8823 80.1742 36.7449 78.8851 38.4702C77.596 40.1796 76.9514 42.5775 76.9514 45.664C76.9514 48.8454 77.5881 51.267 78.8615 52.929C80.1506 54.5909 81.9664 55.4298 84.3088 55.4456C86.0224 55.4298 87.4059 54.9945 88.4592 54.1398C89.5282 53.2693 90.1885 52.0584 90.44 50.5073L99.5425 50.6023C99.3696 52.6757 98.6621 54.6938 97.4202 56.6565C96.1939 58.6033 94.441 60.2019 92.1615 61.4523C89.8977 62.7027 87.2172 63.3279 84.1202 63.3279C80.9603 63.3279 78.1383 62.6394 75.6544 61.2624C73.1862 59.8853 71.2447 57.8673 69.8298 55.2082C68.4149 52.5491 67.7074 49.3677 67.7074 45.664C67.7074 41.9602 68.4228 38.7788 69.8534 36.1197C71.2997 33.4606 73.2648 31.4426 75.7487 30.0655C78.2327 28.6885 81.0231 28 84.1202 28C86.9657 28 89.5046 28.5223 91.737 29.567C93.9694 30.5958 95.7616 32.1073 97.1136 34.1017C98.4813 36.096 99.291 38.4781 99.5425 41.248H90.44Z" fill="url(#paint0_linear_664_5646)"/>
<path d="M136.707 45.664C136.707 49.3677 135.984 52.5491 134.537 55.2082C133.091 57.8673 131.118 59.8853 128.619 61.2624C126.119 62.6394 123.313 63.3279 120.2 63.3279C117.056 63.3279 114.234 62.6394 111.734 61.2624C109.234 59.8695 107.262 57.8435 105.815 55.1845C104.369 52.5254 103.646 49.3519 103.646 45.664C103.646 41.9602 104.369 38.7788 105.815 36.1197C107.262 33.4606 109.234 31.4426 111.734 30.0655C114.234 28.6885 117.056 28 120.2 28C123.313 28 126.119 28.6885 128.619 30.0655C131.118 31.4426 133.091 33.4606 134.537 36.1197C135.984 38.7788 136.707 41.9602 136.707 45.664ZM112.89 45.664C112.89 48.8137 113.518 51.2275 114.776 52.9052C116.034 54.583 117.842 55.4298 120.2 55.4456C122.542 55.4298 124.342 54.583 125.6 52.9052C126.858 51.2275 127.479 48.8137 127.463 45.664C127.479 42.4984 126.858 40.0767 125.6 38.3989C124.342 36.7212 122.542 35.8823 120.2 35.8823C117.842 35.8823 116.034 36.7212 114.776 38.3989C113.518 40.0767 112.89 42.4984 112.89 45.664Z" fill="url(#paint1_linear_664_5646)"/>
<path d="M152.271 28.4748L160.383 48.4655H160.807L168.919 28.4748H180.097V62.8531H171.325V42.625H171.042L163.26 62.6157H157.883L150.148 42.4825H149.865V62.8531H141.093V28.4748H152.271Z" fill="url(#paint2_linear_664_5646)"/>
<path d="M193.68 62.8531H184.719V28.4748H193.68V62.8531Z" fill="url(#paint3_linear_664_5646)"/>
<path d="M227.684 62.8531H220.186L207.499 44.2869H207.263V62.8531H198.302V28.4748H205.942L218.441 46.946H218.723V28.4748H227.684V62.8531Z" fill="url(#paint4_linear_664_5646)"/>
<path d="M254.52 39.776C254.206 38.5414 253.553 37.5838 252.563 36.9032C251.588 36.2226 250.354 35.8823 248.861 35.8823C247.289 35.8823 245.937 36.2701 244.805 37.0457C243.673 37.8054 242.808 38.9134 242.211 40.3695C241.613 41.8257 241.315 43.5747 241.315 45.6165C241.315 48.7346 241.951 51.1483 243.225 52.8578C244.514 54.5672 246.377 55.4298 248.814 55.4456C250.904 55.4298 252.5 54.9629 253.601 54.0448C254.717 53.111 255.291 51.8369 255.322 50.2224H249.002V43.7646H264V48.4655C264 51.5203 263.348 54.1715 262.043 56.419C260.754 58.6508 258.954 60.3602 256.643 61.5473C254.332 62.7344 251.69 63.3279 248.719 63.3279C245.433 63.3279 242.533 62.6157 240.018 61.1912C237.502 59.7666 235.545 57.7248 234.146 55.0657C232.762 52.4067 232.071 49.2886 232.071 45.7114C232.071 42.0552 232.802 38.8896 234.264 36.2147C235.741 33.5398 237.738 31.5059 240.253 30.113C242.769 28.7043 245.575 28 248.672 28C251.313 28 253.726 28.5065 255.912 29.5195C258.097 30.5166 259.865 31.9095 261.217 33.6981C262.569 35.4866 263.371 37.5126 263.623 39.776H254.52Z" fill="url(#paint5_linear_664_5646)"/>
<path d="M86.3368 81.6567C86.2425 80.4854 85.8023 79.5832 85.0163 78.9501C84.246 78.317 83.1219 78.0004 81.6441 78.0004C80.1663 78.0004 79.058 78.2616 78.3191 78.7839C77.596 79.2904 77.2344 79.9868 77.2344 80.8732C77.2344 81.7121 77.6195 82.3927 78.3899 82.915C79.1602 83.4215 80.3471 83.8409 81.9507 84.1733L84.7805 84.8381C88.3806 85.6136 91.0453 86.8799 92.7746 88.6368C94.5196 90.3778 95.4079 92.5938 95.4393 95.2845C95.4236 97.5162 94.8655 99.4235 93.765 101.006C92.6646 102.573 91.0846 103.768 89.0251 104.591C86.9657 105.414 84.4975 105.826 81.6205 105.826C77.0614 105.81 73.4928 104.781 70.9145 102.739C68.3363 100.682 67.0314 97.5954 67 93.4801H75.5837C75.6466 95.0629 76.1889 96.2737 77.2108 97.1126C78.2484 97.9515 79.6711 98.3709 81.4791 98.3709C82.9883 98.3709 84.1516 98.094 84.9691 97.54C85.8023 96.9702 86.2268 96.2183 86.2425 95.2845C86.2268 94.4456 85.8181 93.765 85.0163 93.2427C84.2302 92.7045 82.8939 92.2297 81.0074 91.8182L77.5645 91.0584C71.1032 89.6339 67.8804 86.4209 67.8961 81.4192C67.8804 79.2825 68.4542 77.391 69.6175 75.7449C70.7809 74.0988 72.4002 72.8247 74.4753 71.9225C76.5505 71.0045 78.9165 70.5455 81.5734 70.5455C84.2617 70.5455 86.612 71.0045 88.6243 71.9225C90.6523 72.8405 92.2086 74.1384 93.2934 75.8162C94.3939 77.4939 94.952 79.4407 94.9677 81.6567H86.3368Z" fill="url(#paint6_linear_664_5646)"/>
<path d="M131.943 88.2094C131.943 91.9132 131.22 95.0946 129.774 97.7537C128.328 100.413 126.355 102.431 123.855 103.808C121.355 105.185 118.549 105.873 115.436 105.873C112.292 105.873 109.47 105.185 106.971 103.808C104.471 102.415 102.498 100.389 101.052 97.7299C99.6054 95.0708 98.8822 91.8973 98.8822 88.2094C98.8822 84.5057 99.6054 81.3243 101.052 78.6652C102.498 76.0061 104.471 73.988 106.971 72.611C109.47 71.234 112.292 70.5455 115.436 70.5455C118.549 70.5455 121.355 71.234 123.855 72.611C126.355 73.988 128.328 76.0061 129.774 78.6652C131.22 81.3243 131.943 84.5057 131.943 88.2094ZM108.126 88.2094C108.126 91.3592 108.755 93.7729 110.013 95.4507C111.27 97.1284 113.078 97.9752 115.436 97.9911C117.779 97.9752 119.579 97.1284 120.837 95.4507C122.094 93.7729 122.715 91.3592 122.7 88.2094C122.715 85.0438 122.094 82.6222 120.837 80.9444C119.579 79.2666 117.779 78.4278 115.436 78.4278C113.078 78.4278 111.27 79.2666 110.013 80.9444C108.755 82.6222 108.126 85.0438 108.126 88.2094Z" fill="url(#paint7_linear_664_5646)"/>
<path d="M169.155 88.2094C169.155 91.9132 168.432 95.0946 166.986 97.7537C165.539 100.413 163.566 102.431 161.067 103.808C158.567 105.185 155.761 105.873 152.648 105.873C149.504 105.873 146.682 105.185 144.182 103.808C141.683 102.415 139.71 100.389 138.263 97.7299C136.817 95.0708 136.094 91.8973 136.094 88.2094C136.094 84.5057 136.817 81.3243 138.263 78.6652C139.71 76.0061 141.683 73.988 144.182 72.611C146.682 71.234 149.504 70.5455 152.648 70.5455C155.761 70.5455 158.567 71.234 161.067 72.611C163.566 73.988 165.539 76.0061 166.986 78.6652C168.432 81.3243 169.155 84.5057 169.155 88.2094ZM145.338 88.2094C145.338 91.3592 145.967 93.7729 147.224 95.4507C148.482 97.1284 150.29 97.9752 152.648 97.9911C154.991 97.9752 156.791 97.1284 158.048 95.4507C159.306 93.7729 159.927 91.3592 159.911 88.2094C159.927 85.0438 159.306 82.6222 158.048 80.9444C156.791 79.2666 154.991 78.4278 152.648 78.4278C150.29 78.4278 148.482 79.2666 147.224 80.9444C145.967 82.6222 145.338 85.0438 145.338 88.2094Z" fill="url(#paint8_linear_664_5646)"/>
<path d="M202.924 105.399H195.425L182.738 86.8324H182.502V105.399H173.541V71.0203H181.182L193.68 89.4915H193.963V71.0203H202.924V105.399Z" fill="url(#paint9_linear_664_5646)"/>
<path d="M217.167 94.7147H209.763L208.914 71.0203H217.969L217.167 94.7147ZM208.866 101.315C208.866 100.492 209.071 99.7321 209.48 99.0357C209.888 98.3393 210.439 97.7853 211.13 97.3738C211.838 96.9623 212.608 96.7565 213.441 96.7565C214.227 96.7565 214.966 96.9623 215.658 97.3738C216.365 97.7853 216.931 98.3393 217.356 99.0357C217.796 99.7321 218.016 100.492 218.016 101.315C218.016 102.154 217.804 102.929 217.379 103.642C216.955 104.338 216.389 104.892 215.681 105.304C214.974 105.715 214.227 105.921 213.441 105.921C212.608 105.921 211.838 105.715 211.13 105.304C210.439 104.892 209.888 104.338 209.48 103.642C209.071 102.929 208.866 102.154 208.866 101.315Z" fill="url(#paint10_linear_664_5646)"/>
<path d="M228.026 83.6737C227.762 83.3447 227.574 82.9598 227.477 82.5475C227.379 82.1352 227.374 81.7059 227.461 81.2912C228.76 75.0654 235.79 70.5449 244.181 70.5449C252.571 70.5449 259.602 75.0654 260.9 81.2912C260.989 81.7062 260.984 82.136 260.887 82.549C260.79 82.9619 260.602 83.3475 260.339 83.6772C260.075 84.0069 259.742 84.2724 259.363 84.4541C258.985 84.6357 258.571 84.7289 258.152 84.7267H230.209C229.79 84.728 229.377 84.6341 228.999 84.4518C228.621 84.2696 228.289 84.0037 228.026 83.6737ZM261.881 93.3209L254.691 95.98L248.201 93.3369C247.868 93.2017 247.496 93.2017 247.163 93.3369L240.695 95.9623L234.217 93.3369C233.898 93.2077 233.543 93.202 233.221 93.3209L225.529 96.1573C225.204 96.3024 224.946 96.5675 224.807 96.8988C224.667 97.2301 224.657 97.6028 224.779 97.9412C224.901 98.2795 225.145 98.5583 225.462 98.7208C225.779 98.8834 226.145 98.9175 226.486 98.8164L228.798 97.9672V98.9086C228.798 100.789 229.535 102.593 230.846 103.923C232.157 105.252 233.936 105.999 235.79 105.999H252.571C254.425 105.999 256.204 105.252 257.515 103.923C258.826 102.593 259.563 100.789 259.563 98.9086V97.1943L262.837 95.9871C263.021 95.9326 263.191 95.8405 263.338 95.7165C263.485 95.5924 263.606 95.4391 263.692 95.266C263.778 95.0929 263.829 94.9037 263.84 94.71C263.852 94.5164 263.824 94.3224 263.758 94.1402C263.693 93.9579 263.591 93.7912 263.459 93.6504C263.328 93.5096 263.169 93.3977 262.993 93.3216C262.817 93.2455 262.628 93.2067 262.436 93.2079C262.245 93.209 262.056 93.2499 261.881 93.328V93.3209ZM226.001 90.3995H262.36C262.731 90.3995 263.086 90.2501 263.349 89.9841C263.611 89.7181 263.758 89.3574 263.758 88.9813C263.758 88.6052 263.611 88.2444 263.349 87.9785C263.086 87.7125 262.731 87.5631 262.36 87.5631H226.001C225.631 87.5631 225.275 87.7125 225.013 87.9785C224.75 88.2444 224.603 88.6052 224.603 88.9813C224.603 89.3574 224.75 89.7181 225.013 89.9841C225.275 90.2501 225.631 90.3995 226.001 90.3995Z" fill="url(#paint11_linear_664_5646)"/>
<defs>
<linearGradient id="paint0_linear_664_5646" x1="165.5" y1="28" x2="165.5" y2="105.921" gradientUnits="userSpaceOnUse">
<stop stop-color="#6736FA"/>
<stop offset="1" stop-color="#9E79FF"/>
</linearGradient>
<linearGradient id="paint1_linear_664_5646" x1="165.5" y1="28" x2="165.5" y2="105.921" gradientUnits="userSpaceOnUse">
<stop stop-color="#6736FA"/>
<stop offset="1" stop-color="#9E79FF"/>
</linearGradient>
<linearGradient id="paint2_linear_664_5646" x1="165.5" y1="28" x2="165.5" y2="105.921" gradientUnits="userSpaceOnUse">
<stop stop-color="#6736FA"/>
<stop offset="1" stop-color="#9E79FF"/>
</linearGradient>
<linearGradient id="paint3_linear_664_5646" x1="165.5" y1="28" x2="165.5" y2="105.921" gradientUnits="userSpaceOnUse">
<stop stop-color="#6736FA"/>
<stop offset="1" stop-color="#9E79FF"/>
</linearGradient>
<linearGradient id="paint4_linear_664_5646" x1="165.5" y1="28" x2="165.5" y2="105.921" gradientUnits="userSpaceOnUse">
<stop stop-color="#6736FA"/>
<stop offset="1" stop-color="#9E79FF"/>
</linearGradient>
<linearGradient id="paint5_linear_664_5646" x1="165.5" y1="28" x2="165.5" y2="105.921" gradientUnits="userSpaceOnUse">
<stop stop-color="#6736FA"/>
<stop offset="1" stop-color="#9E79FF"/>
</linearGradient>
<linearGradient id="paint6_linear_664_5646" x1="165.5" y1="28" x2="165.5" y2="105.921" gradientUnits="userSpaceOnUse">
<stop stop-color="#6736FA"/>
<stop offset="1" stop-color="#9E79FF"/>
</linearGradient>
<linearGradient id="paint7_linear_664_5646" x1="165.5" y1="28" x2="165.5" y2="105.921" gradientUnits="userSpaceOnUse">
<stop stop-color="#6736FA"/>
<stop offset="1" stop-color="#9E79FF"/>
</linearGradient>
<linearGradient id="paint8_linear_664_5646" x1="165.5" y1="28" x2="165.5" y2="105.921" gradientUnits="userSpaceOnUse">
<stop stop-color="#6736FA"/>
<stop offset="1" stop-color="#9E79FF"/>
</linearGradient>
<linearGradient id="paint9_linear_664_5646" x1="165.5" y1="28" x2="165.5" y2="105.921" gradientUnits="userSpaceOnUse">
<stop stop-color="#6736FA"/>
<stop offset="1" stop-color="#9E79FF"/>
</linearGradient>
<linearGradient id="paint10_linear_664_5646" x1="165.5" y1="28" x2="165.5" y2="105.921" gradientUnits="userSpaceOnUse">
<stop stop-color="#6736FA"/>
<stop offset="1" stop-color="#9E79FF"/>
</linearGradient>
<linearGradient id="paint11_linear_664_5646" x1="244.223" y1="70.5449" x2="244.223" y2="105.999" gradientUnits="userSpaceOnUse">
<stop stop-color="#AAFF5B"/>
<stop offset="0.5" stop-color="#CAFF43"/>
<stop offset="1" stop-color="#DCFF68"/>
</linearGradient>
</defs>
</svg>
